<svg width="132" height="118" viewBox="0 0 132 118" fill="none" xmlns="http://www.w3.org/2000/svg">
<path d="M120.555 19.1413V57.4392L86.5505 76.5806L65.6333 64.7989H65.6176L52.5463 57.4392V19.1413L86.5505 0L120.555 19.1413Z" fill="url(#paint0_linear)"/>
<path d="M132 82.135V106.05L110.769 118L94.2137 108.682H94.198L89.5218 106.05V82.135L110.769 70.1851L132 82.135Z" fill="url(#paint1_linear)"/>
<path d="M80.0599 78.5082V91.2079L40.03 113.737L15.0642 99.6769C15.0485 99.6769 15.0485 99.6616 15.0328 99.6616L0 91.2002V46.1317L40.03 23.6089L47.5934 27.861V60.2237L50.0571 61.6161C50.0728 61.6161 50.0884 61.6314 50.1041 61.6452L80.0599 78.5082Z" fill="url(#paint2_linear)"/>
<g style="mix-blend-mode:screen" opacity="0.4">
<g style="mix-blend-mode:screen" opacity="0.4">
<path d="M115.847 21.7883L57.2538 54.7768V21.7883L86.5506 5.29395L115.847 21.7883Z" fill="#63B5C0"/>
</g>
</g>
<g style="mix-blend-mode:screen" opacity="0.2">
<g style="mix-blend-mode:screen" opacity="0.2">
<path d="M127.104 84.6748L94.2294 103.18V84.7819L110.769 75.479L127.104 84.6748Z" fill="#63B5C0"/>
</g>
</g>
<g style="mix-blend-mode:screen" opacity="0.2">
<g style="mix-blend-mode:screen" opacity="0.2">
<path d="M42.8796 30.5097V48.7788L4.70758 70.2826V48.7941L40.03 28.9031L42.8796 30.5097Z" fill="#63B5C0"/>
</g>
</g>
<g style="mix-blend-mode:multiply" opacity="0.3">
<g style="mix-blend-mode:multiply" opacity="0.3">
<path d="M80.0593 78.5084V91.208L40.0293 113.737L15.0636 99.677C19.3945 101.695 23.6941 103.824 27.9623 105.966L34.3646 109.225C36.2476 110.189 38.1149 111.168 39.9823 112.162C39.998 112.146 40.0137 112.146 40.0293 112.13C43.0736 110.294 46.1178 108.458 49.1934 106.685C52.4887 104.755 55.7997 102.814 59.1264 100.93C62.453 99.0466 65.764 97.1218 69.1064 95.2551L78.2704 90.1752L78.4587 79.3423L71.8838 75.3946L64.5557 70.8947C59.7069 67.882 54.8582 64.8371 50.1035 61.6377L80.0593 78.5084Z" fill="#DD6780"/>
</g>
</g>
<g style="mix-blend-mode:multiply" opacity="0.3">
<g style="mix-blend-mode:multiply" opacity="0.3">
<path d="M120.555 27.7998V57.4298L86.5504 76.5711L65.6331 64.7895C69.3364 66.3808 72.9298 68.1389 76.5547 69.8847L81.937 72.5623L86.4876 74.8881C89.0297 73.3274 91.6032 71.8279 94.1766 70.2978C96.9541 68.63 99.81 67.0525 102.619 65.4321C105.428 63.8118 108.284 62.2343 111.14 60.6583C113.697 59.2185 116.302 57.8261 118.907 56.4506C118.954 54.3085 119.017 52.1495 119.111 50.0089C119.189 47.544 119.299 45.0805 119.441 42.6033C119.698 37.6704 120.043 32.7282 120.555 27.7998Z" fill="#DD6780"/>
</g>
</g>
<g style="mix-blend-mode:multiply" opacity="0.3">
<g style="mix-blend-mode:multiply" opacity="0.3">
<path d="M132 84.1545V106.05L110.769 118L94.214 108.682C97.2111 109.829 100.098 111.145 102.986 112.476C104.429 113.163 105.873 113.823 107.301 114.542L110.69 116.225L115.178 113.503L120.451 110.458C122.208 109.418 123.997 108.469 125.77 107.49C127.277 106.648 128.799 105.832 130.337 105.042C130.384 103.557 130.415 102.072 130.525 100.574C130.619 98.7515 130.698 96.9322 130.854 95.0962C131.106 91.453 131.466 87.7961 132 84.1545Z" fill="#DD6780"/>
</g>
</g>
<g style="mix-blend-mode:multiply" opacity="0.3">
<g style="mix-blend-mode:multiply" opacity="0.3">
<path d="M110.769 70.1851C109.215 71.5468 107.583 72.7709 105.935 73.9797C104.288 75.1884 102.609 76.336 100.914 77.4376C100.067 78.0191 99.188 78.5378 98.3406 79.0748C97.4933 79.6119 96.6145 80.1765 95.7358 80.6814C94.2921 81.5367 92.8328 82.3783 91.3734 83.1907C91.342 84.5969 91.3264 85.9908 91.2479 87.3985C91.1851 89.1428 91.091 90.9008 90.9341 92.6451C90.8713 93.5341 90.7928 94.4062 90.6987 95.2784C90.6045 96.1505 90.5261 97.0365 90.4005 97.9101C90.1495 99.6697 89.9141 101.414 89.5218 103.174V82.135L110.769 70.1851Z" fill="#DD6780"/>
</g>
</g>
<g style="mix-blend-mode:multiply" opacity="0.3">
<g style="mix-blend-mode:multiply" opacity="0.3">
<path d="M40.03 23.6155C36.9073 25.8647 33.7061 27.9609 30.505 30.0571C27.2882 32.1227 24.0399 34.1715 20.776 36.1621C19.1441 37.1705 17.4964 38.1344 15.8488 39.1152L10.9058 42.0361C7.89298 43.7498 4.89585 45.5109 1.85162 47.1925C1.82024 50.2236 1.83593 53.2516 1.74178 56.2827L1.61626 61.3457L1.41226 66.4118C1.34949 68.1102 1.28673 69.7933 1.17689 71.4749L0.878741 76.541C0.643363 79.9225 0.392297 83.3039 0 86.6854V46.1383L40.03 23.6155Z" fill="#DD6780"/>
</g>
</g>
<g style="mix-blend-mode:multiply" opacity="0.3">
<g style="mix-blend-mode:multiply" opacity="0.3">
<path d="M86.5566 0C83.9518 1.97227 81.2528 3.7946 78.5381 5.61387C75.8234 7.43313 73.0775 9.16518 70.3314 10.8789C68.9505 11.751 67.5381 12.562 66.1572 13.4035C64.7763 14.2451 63.3798 15.1019 61.9518 15.8975C59.4411 17.3343 56.9304 18.8047 54.3883 20.1971C54.3569 22.4922 54.3414 24.7873 54.2472 27.0824C54.1845 29.7126 54.0745 32.3612 53.9333 35.0083C53.8705 36.3241 53.792 37.6553 53.6822 38.9696C53.5723 40.284 53.5253 41.6182 53.3997 42.9478C53.1644 45.5781 52.9133 48.2266 52.5524 50.8737V19.1413L86.5566 0Z" fill="#DD6780"/>
</g>
</g>
<defs>
<linearGradient id="paint0_linear" x1="86.5505" y1="2.68032" x2="86.5505" y2="75.0489" gradientUnits="userSpaceOnUse">
<stop stop-color="#2F4256"/>
<stop offset="0.0364583" stop-color="#4A6888"/>
<stop offset="0.348958" stop-color="#2F4256"/>
<stop offset="0.541667" stop-color="#2F4256"/>
<stop offset="0.723958" stop-color="#2F4256"/>
<stop offset="0.880208" stop-color="#2F4256"/>
<stop offset="1" stop-color="#4A6888"/>
</linearGradient>
<linearGradient id="paint1_linear" x1="110.761" y1="72.2889" x2="110.761" y2="112.501" gradientUnits="userSpaceOnUse">
<stop stop-color="#63B5C0"/>
<stop offset="0.247" stop-color="#49A7B4"/>
<stop offset="0.75" stop-color="#429BA7"/>
<stop offset="1" stop-color="#115058"/>
</linearGradient>
<linearGradient id="paint2_linear" x1="22.4968" y1="34.965" x2="51.7729" y2="100.632" gradientUnits="userSpaceOnUse">
<stop stop-color="#DD6780"/>
<stop offset="0.149" stop-color="#A74358"/>
<stop offset="0.375" stop-color="#982F45"/>
<stop offset="0.65" stop-color="#601525"/>
<stop offset="0.96" stop-color="#2F455B"/>
<stop offset="1" stop-color="#384E66"/>
</linearGradient>
</defs>
</svg>
