<svg width="29" height="29" viewBox="0 0 29 29" fill="none" xmlns="http://www.w3.org/2000/svg">
<path d="M23.2058 20.4074C22.9941 20.1957 22.9651 19.8303 23.1275 19.578C24.4035 17.6147 25.1517 15.2773 25.1517 12.7659C25.1517 5.8291 19.5083 0.188599 12.5773 0.188599C5.6405 0.188599 0 5.8291 0 12.7659C0 19.6998 5.6405 25.3403 12.5773 25.3403C15.2772 25.3403 17.777 24.4732 19.8302 23.0174C20.0709 22.8434 20.4334 22.8666 20.6451 23.0754L25.1401 27.5704C25.1691 27.5994 25.201 27.6284 25.2329 27.6516C25.2851 27.6951 25.5026 27.8981 25.7114 28.1098L26.245 28.6405C26.4567 28.8493 26.7989 28.8493 27.0077 28.6405L28.8405 26.8077C29.0522 26.596 29.0522 26.2538 28.8434 26.0421L23.2058 20.4074ZM20.184 18.6239C19.7693 19.1633 19.3024 19.6563 18.7862 20.0942C17.11 21.5181 14.9437 22.3823 12.5773 22.3823C7.2732 22.3823 2.958 18.0671 2.958 12.7659C2.958 7.4647 7.2732 3.1466 12.5773 3.1466C17.8785 3.1466 22.1937 7.4618 22.1937 12.7659C22.1937 14.9699 21.4368 16.9999 20.184 18.6239Z" fill="#CACCCF"/>
</svg>
